<svg width="21" height="20" viewBox="0 0 21 20" fill="none" xmlns="http://www.w3.org/2000/svg">
<path d="M20.1953 3.86578C19.3895 2.77088 17.9784 1.78263 16.2219 1.08315C14.4748 0.387489 12.4463 0.00279861 10.51 4.44565e-05C8.57357 -0.00473481 6.5426 0.375986 4.79304 1.06627C3.03347 1.76051 1.61896 2.74448 0.810257 3.83678C0.0335035 4.88591 -0.19036 6.01669 0.162826 7.10689C0.391939 7.81414 1.06029 8.29 1.82634 8.29109L4.44932 8.29352C4.45019 8.29352 4.45105 8.29352 4.45195 8.29352C4.97498 8.29348 5.46639 8.0674 5.80034 7.67295C6.13076 7.28271 6.26763 6.7727 6.17588 6.27364C6.17321 6.25901 6.16993 6.24443 6.1662 6.22997L6.02818 5.70012C6.79246 5.34002 8.52414 4.64427 10.502 4.65533C12.4783 4.66533 14.2088 5.36068 14.974 5.72094L14.8338 6.2478C14.8298 6.2627 14.8265 6.27773 14.8236 6.29283C14.7305 6.79162 14.8658 7.30199 15.1951 7.69316C15.5285 8.08927 16.0202 8.31681 16.5446 8.31758L19.1676 8.32001C19.1685 8.32001 19.1694 8.32001 19.1702 8.32001C19.9348 8.31997 20.6034 7.8463 20.8342 7.14055C21.1907 6.05059 20.9698 4.91819 20.1953 3.86578ZM19.6415 6.76007C19.5794 6.94994 19.3857 7.08238 19.1698 7.08238C19.1696 7.08238 19.1693 7.08238 19.169 7.08238L16.5461 7.07995C16.395 7.07975 16.2538 7.01491 16.1588 6.90203C16.1072 6.84067 16.0266 6.71304 16.053 6.53556L16.3139 5.55529C16.3854 5.28664 16.2669 5.00393 16.024 4.86371C15.9229 4.80531 13.511 3.43285 10.5084 3.41758C10.4917 3.4175 10.4755 3.41746 10.4588 3.41746C7.47546 3.41746 5.0808 4.78392 4.97978 4.84241C4.73848 4.98214 4.6202 5.26282 4.68988 5.53038L4.94565 6.51223C4.97178 6.69008 4.89069 6.8177 4.83881 6.87902C4.74369 6.99138 4.60268 7.05577 4.45158 7.05577C4.45133 7.05577 4.45109 7.05577 4.45084 7.05577L1.82781 7.05334C1.61195 7.05302 1.41815 6.91993 1.35654 6.72965C1.12718 6.02163 1.28378 5.29401 1.82199 4.56707C3.25167 2.63609 6.89385 1.23751 10.4887 1.23751C10.4951 1.23751 10.5019 1.23751 10.5083 1.23751C14.1067 1.24261 17.7543 2.65391 19.1816 4.59324C19.7184 5.32297 19.8732 6.05197 19.6415 6.76007Z" fill="#FFFFFE"/>
<path d="M16.4306 10.9642L14.4746 8.93609C14.3562 8.81345 14.1923 8.74407 14.0208 8.74407H12.7567V7.90069C12.7567 7.55893 12.4762 7.2819 12.1301 7.2819C11.784 7.2819 11.5034 7.55893 11.5034 7.90069V8.74407H9.49687V7.90069C9.49687 7.55893 9.21632 7.2819 8.87023 7.2819C8.52414 7.2819 8.2436 7.55893 8.2436 7.90069V8.74407H6.97954C6.80805 8.74407 6.64403 8.81349 6.52578 8.93609L4.56975 10.9642C3.03609 12.5544 2.19146 14.6396 2.19146 16.8355V19.3812C2.19146 19.723 2.472 20 2.81809 20H18.1822C18.5283 20 18.8088 19.723 18.8088 19.3812V16.8355C18.8089 14.6395 17.9643 12.5544 16.4306 10.9642ZM3.44473 18.7624V16.8355C3.44473 14.9588 4.16656 13.1768 5.47734 11.8177L7.24815 9.98157H13.7522L15.523 11.8177C16.8337 13.1767 17.5556 14.9588 17.5556 16.8355V18.7624H3.44473Z" fill="#FFFFFE"/>
<path d="M10.5002 11.261C8.69181 11.261 7.22063 12.7139 7.22063 14.4996C7.22063 16.2853 8.69185 17.7381 10.5002 17.7381C12.3085 17.7381 13.7798 16.2853 13.7798 14.4996C13.7798 12.7138 12.3086 11.261 10.5002 11.261ZM10.5002 16.5005C9.38284 16.5005 8.4739 15.6029 8.4739 14.4995C8.4739 13.3962 9.38289 12.4986 10.5002 12.4986C11.6175 12.4986 12.5265 13.3962 12.5265 14.4995C12.5265 15.6029 11.6175 16.5005 10.5002 16.5005Z" fill="#FFFFFE"/>
</svg>
